<svg width="1200" height="760" viewBox="0 0 1200 760" fill="none" xmlns="http://www.w3.org/2000/svg">
  <defs>
    <linearGradient id="panel" x1="0" y1="0" x2="1200" y2="760" gradientUnits="userSpaceOnUse">
      <stop stop-color="#101828"/>
      <stop offset="1" stop-color="#1E293B"/>
    </linearGradient>
    <linearGradient id="accent" x1="100" y1="100" x2="1050" y2="620" gradientUnits="userSpaceOnUse">
      <stop stop-color="#F97316"/>
      <stop offset="1" stop-color="#FB923C"/>
    </linearGradient>
  </defs>

  <rect width="1200" height="760" rx="28" fill="url(#panel)"/>
  <rect x="30" y="30" width="1140" height="700" rx="20" stroke="#334155"/>

  <rect x="90" y="100" width="230" height="560" rx="16" fill="#0F172A" stroke="#334155"/>
  <rect x="360" y="100" width="750" height="250" rx="16" fill="#0F172A" stroke="#334155"/>
  <rect x="360" y="380" width="360" height="280" rx="16" fill="#0F172A" stroke="#334155"/>
  <rect x="750" y="380" width="360" height="280" rx="16" fill="#0F172A" stroke="#334155"/>

  <rect x="118" y="140" width="174" height="26" rx="8" fill="#1E293B"/>
  <rect x="118" y="180" width="130" height="12" rx="6" fill="#334155"/>
  <rect x="118" y="214" width="160" height="12" rx="6" fill="#334155"/>
  <rect x="118" y="248" width="142" height="12" rx="6" fill="#334155"/>

  <rect x="390" y="142" width="250" height="24" rx="8" fill="#334155"/>
  <rect x="660" y="142" width="130" height="24" rx="8" fill="#F97316" fill-opacity="0.25"/>
  <rect x="810" y="142" width="270" height="24" rx="8" fill="#334155"/>

  <path d="M390 300C430 240 500 270 550 250C600 230 650 180 720 200C780 220 850 280 910 260C970 240 1030 260 1080 220"
    stroke="url(#accent)" stroke-width="4" stroke-linecap="round"/>

  <g>
    <rect x="390" y="420" width="100" height="200" rx="10" fill="#334155"/>
    <rect x="510" y="470" width="100" height="150" rx="10" fill="#475569"/>
    <rect x="630" y="520" width="60" height="100" rx="10" fill="#F97316" fill-opacity="0.8"/>
  </g>

  <g>
    <circle cx="840" cy="520" r="84" stroke="#F97316" stroke-width="22" stroke-opacity="0.9"/>
    <circle cx="840" cy="520" r="52" fill="#1E293B"/>
    <text x="812" y="528" fill="#E2E8F0" font-family="Inter, sans-serif" font-size="24" font-weight="700">91%</text>
  </g>

  <g fill="#E2E8F0" font-family="Inter, sans-serif" font-size="16" font-weight="600">
    <text x="115" y="620">ZaadWorks Modules</text>
    <text x="390" y="200">Attendance and Payroll Trend</text>
    <text x="390" y="405">Shift Analytics</text>
    <text x="750" y="405">Compliance Health</text>
  </g>
</svg>
