<svg width="1200" height="800" viewBox="0 0 1200 800" fill="none" xmlns="http://www.w3.org/2000/svg">
  <defs>
    <linearGradient id="bg" x1="0" y1="0" x2="1200" y2="800" gradientUnits="userSpaceOnUse">
      <stop stop-color="#0B1020"/>
      <stop offset="1" stop-color="#141B2E"/>
    </linearGradient>
    <linearGradient id="line" x1="160" y1="120" x2="1000" y2="660" gradientUnits="userSpaceOnUse">
      <stop stop-color="#FB923C"/>
      <stop offset="1" stop-color="#334155"/>
    </linearGradient>
    <radialGradient id="pulse" cx="0" cy="0" r="1" gradientUnits="userSpaceOnUse" gradientTransform="translate(615 385) rotate(90) scale(250)">
      <stop stop-color="#F97316" stop-opacity="0.35"/>
      <stop offset="1" stop-color="#F97316" stop-opacity="0"/>
    </radialGradient>
  </defs>

  <rect width="1200" height="800" rx="32" fill="url(#bg)"/>
  <rect x="40" y="40" width="1120" height="720" rx="24" stroke="#334155" stroke-opacity="0.6"/>

  <circle cx="615" cy="385" r="250" fill="url(#pulse)"/>

  <g stroke="url(#line)" stroke-width="2" stroke-linecap="round">
    <path d="M210 170L420 250L615 385L920 180"/>
    <path d="M190 510L390 420L615 385L980 560"/>
    <path d="M260 640L615 385L960 660"/>
    <path d="M320 110L615 385L770 620"/>
    <path d="M540 120L615 385L470 650"/>
  </g>

  <g>
    <circle cx="210" cy="170" r="13" fill="#FB923C"/>
    <circle cx="420" cy="250" r="10" fill="#CBD5E1"/>
    <circle cx="615" cy="385" r="18" fill="#F97316"/>
    <circle cx="920" cy="180" r="12" fill="#CBD5E1"/>
    <circle cx="190" cy="510" r="10" fill="#94A3B8"/>
    <circle cx="390" cy="420" r="11" fill="#CBD5E1"/>
    <circle cx="980" cy="560" r="12" fill="#94A3B8"/>
    <circle cx="260" cy="640" r="11" fill="#CBD5E1"/>
    <circle cx="960" cy="660" r="13" fill="#FB923C"/>
    <circle cx="320" cy="110" r="9" fill="#94A3B8"/>
    <circle cx="770" cy="620" r="9" fill="#94A3B8"/>
    <circle cx="540" cy="120" r="9" fill="#CBD5E1"/>
    <circle cx="470" cy="650" r="9" fill="#CBD5E1"/>
  </g>

  <g fill="#E2E8F0" fill-opacity="0.9" font-family="Inter, sans-serif" font-size="18" font-weight="600">
    <text x="145" y="145">Product</text>
    <text x="886" y="155">Data</text>
    <text x="944" y="700">Ops</text>
    <text x="560" y="430">Core Platform</text>
  </g>
</svg>
